<svg xmlns="http://www.w3.org/2000/svg" width="500" viewBox="0 0 375 452.25" height="603" version="1.0"><path fill="#fff" d="M190.973 346.395c-2.246-.512-4.422-1.215-6.61-1.86a189.686 189.686 0 0 1-8.023-2.578c-.281-.105-.582-.21-.867-.316a213.308 213.308 0 0 1-5.621-2.086c-.528-.207-1.051-.403-1.575-.614a206.813 206.813 0 0 1-6.074-2.52l-1.215-.538a266.025 266.025 0 0 1-5.113-2.383c-.492-.242-.973-.465-1.484-.707-1.332-.645-2.653-1.348-3.957-2.008-.883-.465-1.77-.898-2.637-1.379a187.745 187.745 0 0 1-4.754-2.668c-.523-.3-1.066-.57-1.606-.886a179.709 179.709 0 0 1-6.175-3.778c-.555-.36-1.11-.75-1.664-1.11a127.91 127.91 0 0 1-4.395-2.921c-.476-.316-.941-.676-1.406-.992-1.395-.988-2.79-1.977-4.156-2.996-.63-.465-1.227-.93-1.844-1.395a149.046 149.046 0 0 1-3.746-2.937c-.555-.453-1.125-.903-1.68-1.352-1.574-1.305-3.133-2.594-4.68-3.941-.164-.137-.343-.27-.507-.422a195.86 195.86 0 0 1-4.918-4.469c-.465-.45-.93-.883-1.38-1.316a155.46 155.46 0 0 1-3.523-3.465c-.465-.465-.93-.914-1.379-1.38a251.005 251.005 0 0 1-4.332-4.585 2.744 2.744 0 0 1-.21-.227 173.553 173.553 0 0 1-4.395-5.007c-.387-.465-.762-.899-1.152-1.364a192.137 192.137 0 0 1-3.165-3.914c-.39-.465-.78-.96-1.156-1.437a227.924 227.924 0 0 1-3.64-4.86c-32.942-44.918-44.77-106.882-18.442-157.77l-23.328 29.599c-29.898 42.968-26.18 98.875-3.344 144.527.54 1.098 1.11 2.176 1.68 3.254.36.676.688 1.379 1.063 2.054.21.407.449.797.66 1.184.39.734.793 1.426 1.183 2.129.707 1.246 1.442 2.488 2.176 3.734.402.676.824 1.364 1.242 2.04.824 1.335 1.664 2.64 2.535 3.956.36.555.703 1.125 1.078 1.664 1.2 1.77 2.415 3.54 3.66 5.293.028.047.075.09.106.137.195.27.418.555.613.84a140.169 140.169 0 0 0 3.344 4.438c.418.539.84 1.078 1.258 1.601a174.77 174.77 0 0 0 3.09 3.793c.39.465.781.945 1.183 1.41 1.41 1.649 2.836 3.301 4.305 4.918a.26.26 0 0 0 .09.074c.059.079.121.121.164.196a220.874 220.874 0 0 0 4.363 4.605c.465.477.93.942 1.395 1.406a144.254 144.254 0 0 0 3.492 3.418c.48.454.945.918 1.426 1.368a193.331 193.331 0 0 0 4.781 4.363c.031.012.047.043.074.058.27.239.57.48.84.704 1.426 1.23 2.879 2.46 4.348 3.675l1.8 1.438c1.2.96 2.399 1.906 3.614 2.836.644.492 1.289.988 1.933 1.469 1.336.988 2.7 1.96 4.063 2.906.496.36.976.707 1.484 1.05.137.09.27.196.407.286 1.289.898 2.62 1.738 3.94 2.61.571.374 1.126.76 1.712 1.136a231.17 231.17 0 0 0 6.176 3.793c.57.332 1.14.644 1.71.96 1.528.887 3.07 1.755 4.633 2.61.84.45 1.707.883 2.563 1.32 1.094.57 2.203 1.168 3.312 1.723.254.137.524.254.766.375.45.211.898.418 1.363.66 1.739.824 3.493 1.649 5.262 2.446.375.164.734.328 1.11.492a169.97 169.97 0 0 0 6.132 2.55c.496.208.988.387 1.5.583 1.903.734 3.84 1.468 5.785 2.144.243.09.48.18.739.254a191.15 191.15 0 0 0 6.445 2.117c.508.149 1.035.313 1.559.465 2.203.656 4.394 1.453 6.671 1.871 144.575 26.375 186.57-86.883 186.57-86.883-35.261 45.953-97.874 58.067-157.198 44.59ZM138.89 229.21c3.238 4.648 6.836 10.164 11.125 13.898a139.904 139.904 0 0 0 4.855 5.036c.422.437.856.84 1.274 1.261a145.151 145.151 0 0 0 4.949 4.602c.074.047.136.12.21.18.016.015.028.03.044.046a135.672 135.672 0 0 0 5.789 4.782c.433.328.867.691 1.32 1.035a153.12 153.12 0 0 0 6.055 4.422l.18.136c.913.63 1.843 1.215 2.757 1.829.453.285.871.597 1.32.867 1.47.945 2.97 1.875 4.485 2.746.21.133.418.238.629.36 1.304.765 2.64 1.5 3.972 2.218.465.27.946.496 1.41.734.915.48 1.844.961 2.774 1.442.137.058.285.132.418.18 1.906.94 3.824 1.843 5.79 2.695.417.183.855.347 1.273.527a136.91 136.91 0 0 0 4.738 1.934c.676.254 1.363.496 2.023.75 1.453.539 2.895 1.035 4.364 1.511.66.211 1.304.422 1.964.633 2.082.645 4.137 1.469 6.297 1.828 111.621 18.485 137.395-67.453 137.395-67.453-23.227 33.465-68.219 49.418-116.227 36.957a152.098 152.098 0 0 1-6.324-1.828c-.645-.195-1.262-.406-1.906-.613-1.485-.48-2.953-.992-4.422-1.531-.676-.254-1.336-.497-1.996-.75a146.885 146.885 0 0 1-4.75-1.918c-.434-.196-.871-.36-1.29-.54a136.016 136.016 0 0 1-5.831-2.699c-.993-.48-1.95-.988-2.926-1.484-.555-.285-1.125-.57-1.68-.871a147.028 147.028 0 0 1-3.687-2.082c-.285-.164-.598-.332-.883-.496-1.516-.883-3-1.797-4.484-2.727-.45-.285-.899-.601-1.348-.902-.977-.63-1.95-1.274-2.895-1.918a169.27 169.27 0 0 1-6.027-4.406c-.45-.364-.914-.707-1.363-1.067-21.004-16.597-37.664-39.265-45.594-64.976-8.305-26.66-6.508-56.598 7.871-80.887l-17.66 24.933c-21.621 31.11-20.453 72.758-3.586 105.668 2.836 5.516 6.012 10.872 9.566 15.965Zm117.66-38.488c.918.347 1.847.644 2.777.96.402.122.809.27 1.227.391 1.32.403 2.625.899 3.972 1.137 61.637 11.906 78.352-31.633 82.805-38.035-14.644 21.082-39.25 26.148-69.445 18.816-2.383-.586-5.008-1.441-7.317-2.265a89.822 89.822 0 0 1-8.68-3.598 89.388 89.388 0 0 1-15.218-9.281c-27.016-20.493-43.809-59.61-26.176-91.47l-9.55 13.15c-12.747 18.757-13.989 42.054-5.157 62.757 9.324 21.996 28.438 39.238 50.734 47.422Zm0 0"/></svg>